<svg xmlns="http://www.w3.org/2000/svg" viewBox="0 0 227.39 43.67"><defs><style>.cls-1{fill:#42a3d2;}</style></defs><title>blue</title><g id="Layer_2" data-name="Layer 2"><g id="Layer_1-2" data-name="Layer 1"><path class="cls-1" d="M211.2,26.39a42.21,42.21,0,0,0,.41-5.89V8.76h-7.54V38.62h7.54V32.69l2.44-1.86,4.76,7.79h8.58l-8-12.49,7.54-9.25h-8.37L213.67,23a37,37,0,0,0-2.32,3.37ZM199,38.62V24.47a8.14,8.14,0,0,0-2-5.88,7.37,7.37,0,0,0-5.61-2.1,9.47,9.47,0,0,0-3.91.77,5.94,5.94,0,0,0-2.65,2.3h-.44l-.94-2.68h-5.66V38.62h7.5V29.1a11.52,11.52,0,0,1,.84-5.2,2.92,2.92,0,0,1,2.75-1.52,2.14,2.14,0,0,1,2,1.11,6.84,6.84,0,0,1,.62,3.27V38.62Zm-31.53,0L166,35.74h-.15a8.56,8.56,0,0,1-3.09,2.57,10.24,10.24,0,0,1-4.07.69,6.4,6.4,0,0,1-4.84-1.84A7.22,7.22,0,0,1,152.09,32a5.87,5.87,0,0,1,2.42-5.17c1.61-1.14,3.94-1.77,7-1.91l3.63-.12v-.31a2.36,2.36,0,0,0-2.65-2.68,16,16,0,0,0-6.05,1.61l-2.16-4.95a20.9,20.9,0,0,1,9.59-2,9.34,9.34,0,0,1,6.48,2.07,7.43,7.43,0,0,1,2.29,5.8V38.62Zm-5.56-4.92a3.36,3.36,0,0,0,2.33-.86,2.88,2.88,0,0,0,1-2.24V28.91l-1.73.07c-2.47.1-3.7,1-3.7,2.73,0,1.33.7,2,2.13,2m-19-16.94h6.83v-6.2H128.43v6.2h6.85V38.62h7.58ZM125.77,27.7q0,5.34-2.88,8.32t-8,3A10.4,10.4,0,0,1,107,36a11.43,11.43,0,0,1-2.93-8.25c0-3.55,1-6.3,2.87-8.26s4.59-3,8-3a11.46,11.46,0,0,1,5.66,1.37,9.2,9.2,0,0,1,3.79,3.9,12.57,12.57,0,0,1,1.34,5.94m-14.09,0a9.64,9.64,0,0,0,.75,4.27,2.58,2.58,0,0,0,2.51,1.47A2.53,2.53,0,0,0,117.41,32a10.15,10.15,0,0,0,.72-4.27,9.53,9.53,0,0,0-.73-4.2,2.89,2.89,0,0,0-5,0,9.23,9.23,0,0,0-.75,4.21M93.72,39a12.3,12.3,0,0,0,7-1.92v-6A11.65,11.65,0,0,1,94.35,33q-3.85,0-3.86-5.22a6.89,6.89,0,0,1,1-4,3.26,3.26,0,0,1,2.82-1.42,8,8,0,0,1,2.4.36,21.9,21.9,0,0,1,2.51,1l2.21-5.55a15.87,15.87,0,0,0-7.12-1.65q-5.49,0-8.46,3c-2,2-3,4.78-3,8.39s.92,6.35,2.76,8.27S90.16,39,93.72,39M79.34,32.44H70.27v-5.3h8.4V21.06h-8.4V16.65h9.07V10.56H62.69V38.62H79.34ZM20.77,1.56a.69.69,0,0,1-.82.51L19.7,2l-.43-.09-.26,0a.67.67,0,0,1-.55-.79l.09-.51A.68.68,0,0,1,19.34,0l.26,0,.53.1.25.06a.68.68,0,0,1,.51.82Zm-7.71.86-.23-.48A.69.69,0,0,1,13.15,1l.22-.1a4.9,4.9,0,0,1,.52-.24l.23-.1A.69.69,0,0,1,15,1l.21.48a.7.7,0,0,1-.37.9l-.22.09-.44.2-.22.1a.67.67,0,0,1-.91-.31M24.24,4.85l-.16-.19c-.1-.12-.21-.23-.32-.35l-.17-.17a.69.69,0,0,1,0-1L24,2.81a.67.67,0,0,1,1,0l.17.18q.21.21.39.42l.16.19a.67.67,0,0,1-.07,1l-.39.35a.7.7,0,0,1-1-.07M9.47,6.67,9,6.42a.68.68,0,0,1-.28-.92l.12-.22.28-.5.13-.21a.69.69,0,0,1,.94-.23l.45.28a.68.68,0,0,1,.23.93l-.13.21-.24.42-.11.21a.69.69,0,0,1-.93.28m-.61,5.59H8.34a.68.68,0,0,1-.69-.68v-1a.69.69,0,0,1,.69-.69h.52a.69.69,0,0,1,.69.69v1a.68.68,0,0,1-.69.68M33.35,1.56,33.23,1a.7.7,0,0,1,.51-.82L34,.16l.53-.1.26,0a.69.69,0,0,1,.79.56l.09.51a.67.67,0,0,1-.55.79l-.26,0c-.15,0-.29.06-.43.09l-.26.06a.7.7,0,0,1-.82-.51m6.81,1.17-.23-.1-.43-.2-.22-.09a.7.7,0,0,1-.37-.9L39.12,1A.68.68,0,0,1,40,.59l.23.1c.17.07.35.15.52.24L41,1a.69.69,0,0,1,.32.91l-.23.48a.68.68,0,0,1-.91.31M28.92,4.92l-.4-.35a.68.68,0,0,1-.06-1l.16-.19L29,3l.17-.18a.68.68,0,0,1,1,0l.38.36a.69.69,0,0,1,0,1l-.17.17L30,4.66l-.16.19a.69.69,0,0,1-1,.07M43.73,6.39l-.12-.21c-.07-.14-.15-.28-.23-.42l-.13-.21a.67.67,0,0,1,.23-.93l.45-.28a.69.69,0,0,1,.94.23l.12.21c.1.17.2.33.29.5l.12.22a.69.69,0,0,1-.28.92l-.47.25a.68.68,0,0,1-.92-.28m2.06,5.87h-.53a.68.68,0,0,1-.68-.68v-1a.69.69,0,0,1,.68-.69h.53a.68.68,0,0,1,.68.69v1a.67.67,0,0,1-.68.68M27.35,9.64h-.52a.69.69,0,0,1-.68-.7V7.74a.69.69,0,0,1,.68-.7h.52a.69.69,0,0,1,.69.7v1.2a.69.69,0,0,1-.69.7m0,5.67h-.52a.69.69,0,0,1-.68-.7v-1.2a.69.69,0,0,1,.68-.7h.52a.69.69,0,0,1,.69.7v1.2a.69.69,0,0,1-.69.7m0,5.67h-.52a.69.69,0,0,1-.68-.7v-1.2a.69.69,0,0,1,.68-.7h.52a.69.69,0,0,1,.69.7v1.2a.69.69,0,0,1-.69.7m0,5.67h-.52a.69.69,0,0,1-.68-.7v-1.2a.69.69,0,0,1,.68-.7h.52a.69.69,0,0,1,.69.7V26a.69.69,0,0,1-.69.7m0,5.68h-.52a.69.69,0,0,1-.68-.7V30.42a.69.69,0,0,1,.68-.7h.52a.69.69,0,0,1,.69.7v1.21a.7.7,0,0,1-.69.7m0,5.67h-.52a.69.69,0,0,1-.68-.7V36.09a.69.69,0,0,1,.68-.7h.52a.69.69,0,0,1,.69.7V37.3a.7.7,0,0,1-.69.7m0,5.67h-.52a.69.69,0,0,1-.68-.7V41.76a.69.69,0,0,1,.68-.7h.52a.69.69,0,0,1,.69.7V43a.7.7,0,0,1-.69.7M2.59,20.4,16.28,36.26a.37.37,0,0,0,.5.05,17.07,17.07,0,0,1,20.34,0,.37.37,0,0,0,.5-.05L51.31,20.4a.37.37,0,0,0-.06-.54A41.35,41.35,0,0,0,27,12.08a41.35,41.35,0,0,0-24.3,7.78.37.37,0,0,0-.06.54M38.22,38.45a.94.94,0,0,1-1.33.1,15.2,15.2,0,0,0-19.88,0,1,1,0,0,1-1.34-.1L.23,20.57a1,1,0,0,1,.14-1.38,43.67,43.67,0,0,1,53.16,0,1,1,0,0,1,.14,1.38Z"/></g></g></svg>